<svg xmlns="http://www.w3.org/2000/svg" xmlns:xlink="http://www.w3.org/1999/xlink" width="272" height="290" viewBox="0 0 272 290">
  <defs>
    <clipPath id="clip-path">
      <rect width="272" height="290" fill="none"/>
    </clipPath>
  </defs>
  <g id="dots3" clip-path="url(#clip-path)">
    <g transform="translate(291 -200)">
      <circle id="Ellipse_4" data-name="Ellipse 4" cx="5" cy="5" r="5" transform="translate(-291 200)" fill="#ccd7f8"/>
    </g>
    <g transform="translate(321 -200)">
      <circle id="Ellipse_4-2" data-name="Ellipse 4" cx="5" cy="5" r="5" transform="translate(-291 200)" fill="#ccd7f8"/>
    </g>
    <g transform="translate(351 -200)">
      <circle id="Ellipse_4-3" data-name="Ellipse 4" cx="5" cy="5" r="5" transform="translate(-291 200)" fill="#ccd7f8"/>
    </g>
    <g transform="translate(381 -200)">
      <circle id="Ellipse_4-4" data-name="Ellipse 4" cx="5" cy="5" r="5" transform="translate(-291 200)" fill="#ccd7f8"/>
    </g>
    <g transform="translate(411 -200)">
      <circle id="Ellipse_4-5" data-name="Ellipse 4" cx="5" cy="5" r="5" transform="translate(-291 200)" fill="#ccd7f8"/>
    </g>
    <g transform="translate(441 -200)">
      <circle id="Ellipse_4-6" data-name="Ellipse 4" cx="5" cy="5" r="5" transform="translate(-291 200)" fill="#ccd7f8"/>
    </g>
    <g transform="translate(471 -200)">
      <circle id="Ellipse_4-7" data-name="Ellipse 4" cx="5" cy="5" r="5" transform="translate(-291 200)" fill="#ccd7f8"/>
    </g>
    <g transform="translate(501 -200)">
      <circle id="Ellipse_4-8" data-name="Ellipse 4" cx="5" cy="5" r="5" transform="translate(-291 200)" fill="#ccd7f8"/>
    </g>
    <g transform="translate(531 -200)">
      <circle id="Ellipse_4-9" data-name="Ellipse 4" cx="5" cy="5" r="5" transform="translate(-291 200)" fill="#ccd7f8"/>
    </g>
    <g transform="translate(561 -200)">
      <circle id="Ellipse_4-10" data-name="Ellipse 4" cx="5" cy="5" r="5" transform="translate(-291 200)" fill="#ccd7f8"/>
    </g>
    <g transform="translate(291 -170)">
      <circle id="Ellipse_4-11" data-name="Ellipse 4" cx="5" cy="5" r="5" transform="translate(-291 200)" fill="#ccd7f8"/>
    </g>
    <g transform="translate(321 -170)">
      <circle id="Ellipse_4-12" data-name="Ellipse 4" cx="5" cy="5" r="5" transform="translate(-291 200)" fill="#ccd7f8"/>
    </g>
    <g transform="translate(351 -170)">
      <circle id="Ellipse_4-13" data-name="Ellipse 4" cx="5" cy="5" r="5" transform="translate(-291 200)" fill="#ccd7f8"/>
    </g>
    <g transform="translate(381 -170)">
      <circle id="Ellipse_4-14" data-name="Ellipse 4" cx="5" cy="5" r="5" transform="translate(-291 200)" fill="#ccd7f8"/>
    </g>
    <g transform="translate(411 -170)">
      <circle id="Ellipse_4-15" data-name="Ellipse 4" cx="5" cy="5" r="5" transform="translate(-291 200)" fill="#ccd7f8"/>
    </g>
    <g transform="translate(441 -170)">
      <circle id="Ellipse_4-16" data-name="Ellipse 4" cx="5" cy="5" r="5" transform="translate(-291 200)" fill="#ccd7f8"/>
    </g>
    <g transform="translate(471 -170)">
      <circle id="Ellipse_4-17" data-name="Ellipse 4" cx="5" cy="5" r="5" transform="translate(-291 200)" fill="#ccd7f8"/>
    </g>
    <g transform="translate(501 -170)">
      <circle id="Ellipse_4-18" data-name="Ellipse 4" cx="5" cy="5" r="5" transform="translate(-291 200)" fill="#ccd7f8"/>
    </g>
    <g transform="translate(531 -170)">
      <circle id="Ellipse_4-19" data-name="Ellipse 4" cx="5" cy="5" r="5" transform="translate(-291 200)" fill="#ccd7f8"/>
    </g>
    <g transform="translate(561 -170)">
      <circle id="Ellipse_4-20" data-name="Ellipse 4" cx="5" cy="5" r="5" transform="translate(-291 200)" fill="#ccd7f8"/>
    </g>
    <g transform="translate(291 -140)">
      <circle id="Ellipse_4-21" data-name="Ellipse 4" cx="5" cy="5" r="5" transform="translate(-291 200)" fill="#ccd7f8"/>
    </g>
    <g transform="translate(321 -140)">
      <circle id="Ellipse_4-22" data-name="Ellipse 4" cx="5" cy="5" r="5" transform="translate(-291 200)" fill="#ccd7f8"/>
    </g>
    <g transform="translate(351 -140)">
      <circle id="Ellipse_4-23" data-name="Ellipse 4" cx="5" cy="5" r="5" transform="translate(-291 200)" fill="#ccd7f8"/>
    </g>
    <g transform="translate(381 -140)">
      <circle id="Ellipse_4-24" data-name="Ellipse 4" cx="5" cy="5" r="5" transform="translate(-291 200)" fill="#ccd7f8"/>
    </g>
    <g transform="translate(411 -140)">
      <circle id="Ellipse_4-25" data-name="Ellipse 4" cx="5" cy="5" r="5" transform="translate(-291 200)" fill="#ccd7f8"/>
    </g>
    <g transform="translate(441 -140)">
      <circle id="Ellipse_4-26" data-name="Ellipse 4" cx="5" cy="5" r="5" transform="translate(-291 200)" fill="#ccd7f8"/>
    </g>
    <g transform="translate(471 -140)">
      <circle id="Ellipse_4-27" data-name="Ellipse 4" cx="5" cy="5" r="5" transform="translate(-291 200)" fill="#ccd7f8"/>
    </g>
    <g transform="translate(501 -140)">
      <circle id="Ellipse_4-28" data-name="Ellipse 4" cx="5" cy="5" r="5" transform="translate(-291 200)" fill="#ccd7f8"/>
    </g>
    <g transform="translate(531 -140)">
      <circle id="Ellipse_4-29" data-name="Ellipse 4" cx="5" cy="5" r="5" transform="translate(-291 200)" fill="#ccd7f8"/>
    </g>
    <g transform="translate(561 -140)">
      <circle id="Ellipse_4-30" data-name="Ellipse 4" cx="5" cy="5" r="5" transform="translate(-291 200)" fill="#ccd7f8"/>
    </g>
    <g transform="translate(291 -110)">
      <circle id="Ellipse_4-31" data-name="Ellipse 4" cx="5" cy="5" r="5" transform="translate(-291 200)" fill="#ccd7f8"/>
    </g>
    <g transform="translate(321 -110)">
      <circle id="Ellipse_4-32" data-name="Ellipse 4" cx="5" cy="5" r="5" transform="translate(-291 200)" fill="#ccd7f8"/>
    </g>
    <g transform="translate(351 -110)">
      <circle id="Ellipse_4-33" data-name="Ellipse 4" cx="5" cy="5" r="5" transform="translate(-291 200)" fill="#ccd7f8"/>
    </g>
    <g transform="translate(381 -110)">
      <circle id="Ellipse_4-34" data-name="Ellipse 4" cx="5" cy="5" r="5" transform="translate(-291 200)" fill="#ccd7f8"/>
    </g>
    <g transform="translate(411 -110)">
      <circle id="Ellipse_4-35" data-name="Ellipse 4" cx="5" cy="5" r="5" transform="translate(-291 200)" fill="#ccd7f8"/>
    </g>
    <g transform="translate(441 -110)">
      <circle id="Ellipse_4-36" data-name="Ellipse 4" cx="5" cy="5" r="5" transform="translate(-291 200)" fill="#ccd7f8"/>
    </g>
    <g transform="translate(471 -110)">
      <circle id="Ellipse_4-37" data-name="Ellipse 4" cx="5" cy="5" r="5" transform="translate(-291 200)" fill="#ccd7f8"/>
    </g>
    <g transform="translate(501 -110)">
      <circle id="Ellipse_4-38" data-name="Ellipse 4" cx="5" cy="5" r="5" transform="translate(-291 200)" fill="#ccd7f8"/>
    </g>
    <g transform="translate(531 -110)">
      <circle id="Ellipse_4-39" data-name="Ellipse 4" cx="5" cy="5" r="5" transform="translate(-291 200)" fill="#ccd7f8"/>
    </g>
    <g transform="translate(561 -110)">
      <circle id="Ellipse_4-40" data-name="Ellipse 4" cx="5" cy="5" r="5" transform="translate(-291 200)" fill="#ccd7f8"/>
    </g>
    <g transform="translate(291 -80)">
      <circle id="Ellipse_4-41" data-name="Ellipse 4" cx="5" cy="5" r="5" transform="translate(-291 200)" fill="#ccd7f8"/>
    </g>
    <g transform="translate(321 -80)">
      <circle id="Ellipse_4-42" data-name="Ellipse 4" cx="5" cy="5" r="5" transform="translate(-291 200)" fill="#ccd7f8"/>
    </g>
    <g transform="translate(351 -80)">
      <circle id="Ellipse_4-43" data-name="Ellipse 4" cx="5" cy="5" r="5" transform="translate(-291 200)" fill="#ccd7f8"/>
    </g>
    <g transform="translate(381 -80)">
      <circle id="Ellipse_4-44" data-name="Ellipse 4" cx="5" cy="5" r="5" transform="translate(-291 200)" fill="#ccd7f8"/>
    </g>
    <g transform="translate(411 -80)">
      <circle id="Ellipse_4-45" data-name="Ellipse 4" cx="5" cy="5" r="5" transform="translate(-291 200)" fill="#ccd7f8"/>
    </g>
    <g transform="translate(441 -80)">
      <circle id="Ellipse_4-46" data-name="Ellipse 4" cx="5" cy="5" r="5" transform="translate(-291 200)" fill="#ccd7f8"/>
    </g>
    <g transform="translate(471 -80)">
      <circle id="Ellipse_4-47" data-name="Ellipse 4" cx="5" cy="5" r="5" transform="translate(-291 200)" fill="#ccd7f8"/>
    </g>
    <g transform="translate(501 -80)">
      <circle id="Ellipse_4-48" data-name="Ellipse 4" cx="5" cy="5" r="5" transform="translate(-291 200)" fill="#ccd7f8"/>
    </g>
    <g transform="translate(531 -80)">
      <circle id="Ellipse_4-49" data-name="Ellipse 4" cx="5" cy="5" r="5" transform="translate(-291 200)" fill="#ccd7f8"/>
    </g>
    <g transform="translate(561 -80)">
      <circle id="Ellipse_4-50" data-name="Ellipse 4" cx="5" cy="5" r="5" transform="translate(-291 200)" fill="#ccd7f8"/>
    </g>
    <g transform="translate(291 -50)">
      <circle id="Ellipse_4-51" data-name="Ellipse 4" cx="5" cy="5" r="5" transform="translate(-291 200)" fill="#ccd7f8"/>
    </g>
    <g transform="translate(321 -50)">
      <circle id="Ellipse_4-52" data-name="Ellipse 4" cx="5" cy="5" r="5" transform="translate(-291 200)" fill="#ccd7f8"/>
    </g>
    <g transform="translate(351 -50)">
      <circle id="Ellipse_4-53" data-name="Ellipse 4" cx="5" cy="5" r="5" transform="translate(-291 200)" fill="#ccd7f8"/>
    </g>
    <g transform="translate(381 -50)">
      <circle id="Ellipse_4-54" data-name="Ellipse 4" cx="5" cy="5" r="5" transform="translate(-291 200)" fill="#ccd7f8"/>
    </g>
    <g transform="translate(411 -50)">
      <circle id="Ellipse_4-55" data-name="Ellipse 4" cx="5" cy="5" r="5" transform="translate(-291 200)" fill="#ccd7f8"/>
    </g>
    <g transform="translate(441 -50)">
      <circle id="Ellipse_4-56" data-name="Ellipse 4" cx="5" cy="5" r="5" transform="translate(-291 200)" fill="#ccd7f8"/>
    </g>
    <g transform="translate(471 -50)">
      <circle id="Ellipse_4-57" data-name="Ellipse 4" cx="5" cy="5" r="5" transform="translate(-291 200)" fill="#ccd7f8"/>
    </g>
    <g transform="translate(501 -50)">
      <circle id="Ellipse_4-58" data-name="Ellipse 4" cx="5" cy="5" r="5" transform="translate(-291 200)" fill="#ccd7f8"/>
    </g>
    <g transform="translate(531 -50)">
      <circle id="Ellipse_4-59" data-name="Ellipse 4" cx="5" cy="5" r="5" transform="translate(-291 200)" fill="#ccd7f8"/>
    </g>
    <g transform="translate(561 -50)">
      <circle id="Ellipse_4-60" data-name="Ellipse 4" cx="5" cy="5" r="5" transform="translate(-291 200)" fill="#ccd7f8"/>
    </g>
    <g transform="translate(291 -20)">
      <circle id="Ellipse_4-61" data-name="Ellipse 4" cx="5" cy="5" r="5" transform="translate(-291 200)" fill="#ccd7f8"/>
    </g>
    <g transform="translate(321 -20)">
      <circle id="Ellipse_4-62" data-name="Ellipse 4" cx="5" cy="5" r="5" transform="translate(-291 200)" fill="#ccd7f8"/>
    </g>
    <g transform="translate(351 -20)">
      <circle id="Ellipse_4-63" data-name="Ellipse 4" cx="5" cy="5" r="5" transform="translate(-291 200)" fill="#ccd7f8"/>
    </g>
    <g transform="translate(381 -20)">
      <circle id="Ellipse_4-64" data-name="Ellipse 4" cx="5" cy="5" r="5" transform="translate(-291 200)" fill="#ccd7f8"/>
    </g>
    <g transform="translate(411 -20)">
      <circle id="Ellipse_4-65" data-name="Ellipse 4" cx="5" cy="5" r="5" transform="translate(-291 200)" fill="#ccd7f8"/>
    </g>
    <g transform="translate(441 -20)">
      <circle id="Ellipse_4-66" data-name="Ellipse 4" cx="5" cy="5" r="5" transform="translate(-291 200)" fill="#ccd7f8"/>
    </g>
    <g transform="translate(471 -20)">
      <circle id="Ellipse_4-67" data-name="Ellipse 4" cx="5" cy="5" r="5" transform="translate(-291 200)" fill="#ccd7f8"/>
    </g>
    <g transform="translate(501 -20)">
      <circle id="Ellipse_4-68" data-name="Ellipse 4" cx="5" cy="5" r="5" transform="translate(-291 200)" fill="#ccd7f8"/>
    </g>
    <g transform="translate(531 -20)">
      <circle id="Ellipse_4-69" data-name="Ellipse 4" cx="5" cy="5" r="5" transform="translate(-291 200)" fill="#ccd7f8"/>
    </g>
    <g transform="translate(561 -20)">
      <circle id="Ellipse_4-70" data-name="Ellipse 4" cx="5" cy="5" r="5" transform="translate(-291 200)" fill="#ccd7f8"/>
    </g>
    <g transform="translate(291 10)">
      <circle id="Ellipse_4-71" data-name="Ellipse 4" cx="5" cy="5" r="5" transform="translate(-291 200)" fill="#ccd7f8"/>
    </g>
    <g transform="translate(321 10)">
      <circle id="Ellipse_4-72" data-name="Ellipse 4" cx="5" cy="5" r="5" transform="translate(-291 200)" fill="#ccd7f8"/>
    </g>
    <g transform="translate(351 10)">
      <circle id="Ellipse_4-73" data-name="Ellipse 4" cx="5" cy="5" r="5" transform="translate(-291 200)" fill="#ccd7f8"/>
    </g>
    <g transform="translate(381 10)">
      <circle id="Ellipse_4-74" data-name="Ellipse 4" cx="5" cy="5" r="5" transform="translate(-291 200)" fill="#ccd7f8"/>
    </g>
    <g transform="translate(411 10)">
      <circle id="Ellipse_4-75" data-name="Ellipse 4" cx="5" cy="5" r="5" transform="translate(-291 200)" fill="#ccd7f8"/>
    </g>
    <g transform="translate(441 10)">
      <circle id="Ellipse_4-76" data-name="Ellipse 4" cx="5" cy="5" r="5" transform="translate(-291 200)" fill="#ccd7f8"/>
    </g>
    <g transform="translate(471 10)">
      <circle id="Ellipse_4-77" data-name="Ellipse 4" cx="5" cy="5" r="5" transform="translate(-291 200)" fill="#ccd7f8"/>
    </g>
    <g transform="translate(501 10)">
      <circle id="Ellipse_4-78" data-name="Ellipse 4" cx="5" cy="5" r="5" transform="translate(-291 200)" fill="#ccd7f8"/>
    </g>
    <g transform="translate(531 10)">
      <circle id="Ellipse_4-79" data-name="Ellipse 4" cx="5" cy="5" r="5" transform="translate(-291 200)" fill="#ccd7f8"/>
    </g>
    <g transform="translate(561 10)">
      <circle id="Ellipse_4-80" data-name="Ellipse 4" cx="5" cy="5" r="5" transform="translate(-291 200)" fill="#ccd7f8"/>
    </g>
    <g transform="translate(291 40)">
      <circle id="Ellipse_4-81" data-name="Ellipse 4" cx="5" cy="5" r="5" transform="translate(-291 200)" fill="#ccd7f8"/>
    </g>
    <g transform="translate(321 40)">
      <circle id="Ellipse_4-82" data-name="Ellipse 4" cx="5" cy="5" r="5" transform="translate(-291 200)" fill="#ccd7f8"/>
    </g>
    <g transform="translate(351 40)">
      <circle id="Ellipse_4-83" data-name="Ellipse 4" cx="5" cy="5" r="5" transform="translate(-291 200)" fill="#ccd7f8"/>
    </g>
    <g transform="translate(381 40)">
      <circle id="Ellipse_4-84" data-name="Ellipse 4" cx="5" cy="5" r="5" transform="translate(-291 200)" fill="#ccd7f8"/>
    </g>
    <g transform="translate(411 40)">
      <circle id="Ellipse_4-85" data-name="Ellipse 4" cx="5" cy="5" r="5" transform="translate(-291 200)" fill="#ccd7f8"/>
    </g>
    <g transform="translate(441 40)">
      <circle id="Ellipse_4-86" data-name="Ellipse 4" cx="5" cy="5" r="5" transform="translate(-291 200)" fill="#ccd7f8"/>
    </g>
    <g transform="translate(471 40)">
      <circle id="Ellipse_4-87" data-name="Ellipse 4" cx="5" cy="5" r="5" transform="translate(-291 200)" fill="#ccd7f8"/>
    </g>
    <g transform="translate(501 40)">
      <circle id="Ellipse_4-88" data-name="Ellipse 4" cx="5" cy="5" r="5" transform="translate(-291 200)" fill="#ccd7f8"/>
    </g>
    <g transform="translate(531 40)">
      <circle id="Ellipse_4-89" data-name="Ellipse 4" cx="5" cy="5" r="5" transform="translate(-291 200)" fill="#ccd7f8"/>
    </g>
    <g transform="translate(561 40)">
      <circle id="Ellipse_4-90" data-name="Ellipse 4" cx="5" cy="5" r="5" transform="translate(-291 200)" fill="#ccd7f8"/>
    </g>
    <g transform="translate(291 70)">
      <circle id="Ellipse_4-91" data-name="Ellipse 4" cx="5" cy="5" r="5" transform="translate(-291 200)" fill="#ccd7f8"/>
    </g>
    <g transform="translate(321 70)">
      <circle id="Ellipse_4-92" data-name="Ellipse 4" cx="5" cy="5" r="5" transform="translate(-291 200)" fill="#ccd7f8"/>
    </g>
    <g transform="translate(351 70)">
      <circle id="Ellipse_4-93" data-name="Ellipse 4" cx="5" cy="5" r="5" transform="translate(-291 200)" fill="#ccd7f8"/>
    </g>
    <g transform="translate(381 70)">
      <circle id="Ellipse_4-94" data-name="Ellipse 4" cx="5" cy="5" r="5" transform="translate(-291 200)" fill="#ccd7f8"/>
    </g>
    <g transform="translate(411 70)">
      <circle id="Ellipse_4-95" data-name="Ellipse 4" cx="5" cy="5" r="5" transform="translate(-291 200)" fill="#ccd7f8"/>
    </g>
    <g transform="translate(441 70)">
      <circle id="Ellipse_4-96" data-name="Ellipse 4" cx="5" cy="5" r="5" transform="translate(-291 200)" fill="#ccd7f8"/>
    </g>
    <g transform="translate(471 70)">
      <circle id="Ellipse_4-97" data-name="Ellipse 4" cx="5" cy="5" r="5" transform="translate(-291 200)" fill="#ccd7f8"/>
    </g>
    <g transform="translate(501 70)">
      <circle id="Ellipse_4-98" data-name="Ellipse 4" cx="5" cy="5" r="5" transform="translate(-291 200)" fill="#ccd7f8"/>
    </g>
    <g transform="translate(531 70)">
      <circle id="Ellipse_4-99" data-name="Ellipse 4" cx="5" cy="5" r="5" transform="translate(-291 200)" fill="#ccd7f8"/>
    </g>
    <g transform="translate(561 70)">
      <circle id="Ellipse_4-100" data-name="Ellipse 4" cx="5" cy="5" r="5" transform="translate(-291 200)" fill="#ccd7f8"/>
    </g>
  </g>
</svg>
